<svg xmlns="http://www.w3.org/2000/svg" xmlns:xlink="http://www.w3.org/1999/xlink" width="39" height="39" viewBox="0 0 39 39">
  <defs>
    <clipPath id="clip-path">
      <rect id="Rectangle_66" data-name="Rectangle 66" width="18.953" height="18.905" fill="#fff"/>
    </clipPath>
  </defs>
  <g id="Group_51" data-name="Group 51" transform="translate(-290 -83)">
    <rect id="Rectangle_62" data-name="Rectangle 62" width="39" height="39" rx="18" transform="translate(290 83)" fill="#3f469c"/>
    <g id="Group_31" data-name="Group 31" transform="translate(299.365 91.46)">
      <g id="Group_30" data-name="Group 30" clip-path="url(#clip-path)">
        <path id="Path_65" data-name="Path 65" d="M6.679,64.72c0,.45-.2.578-.609.572-.964-.014-1.928-.017-2.893,0-.428.008-.58-.144-.575-.586.02-1.927.008-3.856.008-5.784,0-1.91.011-3.818-.007-5.727,0-.425.111-.6.563-.59.983.027,1.969.022,2.952,0,.4-.008.561.13.56.541q-.012,5.786,0,11.571" transform="translate(-2.295 -46.388)" fill="#fff"/>
        <path id="Path_66" data-name="Path 66" d="M4.64,2.34A2.263,2.263,0,0,1,2.315,4.631,2.348,2.348,0,0,1,0,2.349,2.409,2.409,0,0,1,2.337,0a2.315,2.315,0,0,1,2.3,2.34" transform="translate(0 0)" fill="#fff"/>
        <path id="Path_67" data-name="Path 67" d="M68.779,62.623c.008.443-.189.531-.566.526-.945-.012-1.891-.018-2.835,0-.451.011-.613-.138-.606-.612.025-1.929.009-3.858.011-5.788a6.211,6.211,0,0,0-.194-1.691,1.6,1.6,0,0,0-1.578-1.338,2.007,2.007,0,0,0-2.155,1.1,4.668,4.668,0,0,0-.3,2.024c-.011,1.79,0,3.583,0,5.374,0,.923,0,.923-.95.924-.847,0-1.693-.011-2.539,0-.389.007-.558-.112-.557-.54q.021-5.818,0-11.634c0-.392.143-.515.518-.508q1.418.025,2.835,0c.375-.007.546.112.518.507-.025.325,0,.655,0,1.1a4.2,4.2,0,0,1,2.424-1.743c2.7-.551,5.41.246,5.861,3.734a41.8,41.8,0,0,1,.111,4.6c.025,1.319-.012,2.638.013,3.956" transform="translate(-49.826 -44.247)" fill="#fff"/>
      </g>
    </g>
  </g>
</svg>
