<svg id="Group_11" data-name="Group 11" xmlns="http://www.w3.org/2000/svg" xmlns:xlink="http://www.w3.org/1999/xlink" width="61.07" height="61.074" viewBox="0 0 61.07 61.074">
  <defs>
    <clipPath id="clip-path">
      <rect id="Rectangle_37" data-name="Rectangle 37" width="61.07" height="61.074" fill="#d2d2d2"/>
    </clipPath>
  </defs>
  <g id="Group_10" data-name="Group 10" clip-path="url(#clip-path)">
    <path id="Path_34" data-name="Path 34" d="M297.615,314.873c0-4.611.072-9.224-.032-13.834a3.23,3.23,0,0,1,3.39-3.438c9.254.071,18.509.029,27.764.033,2.3,0,3.439,1.148,3.44,3.451q0,13.786,0,27.573c0,2.342-1.175,3.535-3.486,3.535q-13.834,0-27.669,0c-2.232,0-3.4-1.159-3.4-3.391q-.011-6.965,0-13.93m17.254,15.253q6.916,0,13.832,0c1.232,0,1.405-.167,1.406-1.367q0-13.879,0-27.759c0-1.075-.33-1.4-1.431-1.406-1.59-.011-3.181.034-4.769-.02-.727-.025-.9.209-.9.915.034,3.72.028,7.44.01,11.16a2.037,2.037,0,0,1-2.992,1.987c-1.406-.579-2.812-1.161-4.183-1.815a2.059,2.059,0,0,0-1.954.019c-1.256.6-2.593,1.04-3.824,1.686-1.864.977-3.406-.3-3.339-2.195.128-3.62.024-7.248.049-10.873,0-.643-.151-.9-.845-.881-1.62.046-3.243.007-4.865.018-1.1.008-1.491.391-1.491,1.493q-.008,13.784,0,27.568c0,1.154.322,1.47,1.463,1.471q6.916.006,13.832,0m5.972-18.357a1.892,1.892,0,0,0,.088-.351c.005-3.721,0-7.443.019-11.164,0-.58-.244-.674-.742-.672q-5.343.022-10.687,0c-.572,0-.781.166-.777.756q.031,5.391,0,10.782c0,.664.235.657.724.44,1.391-.616,2.8-1.192,4.184-1.819a2.845,2.845,0,0,1,2.47,0c1.556.692,3.128,1.346,4.722,2.028" transform="translate(-271.108 -271.125)" fill="#d2d2d2"/>
    <path id="Path_35" data-name="Path 35" d="M0,30.475Q0,17.5,0,4.522C0,1.62,1.634,0,4.559,0H40.245C43.152,0,44.79,1.617,44.8,4.541q.02,9.112,0,18.225a4.038,4.038,0,0,1-.1.941.876.876,0,0,1-1,.7.952.952,0,0,1-.921-.82,4.433,4.433,0,0,1-.024-.856q0-9.112,0-18.225c0-1.709-.716-2.433-2.415-2.433q-17.938,0-35.877,0c-1.741,0-2.392.66-2.392,2.421q0,26.049,0,52.1c0,1.751.658,2.411,2.4,2.412q9.255,0,18.511,0a4.314,4.314,0,0,1,.949.048.971.971,0,0,1,.84,1.009.989.989,0,0,1-.962,1,5.794,5.794,0,0,1-.667.009q-9.351,0-18.7,0A4.086,4.086,0,0,1,0,56.619Q0,43.547,0,30.475" transform="translate(0 0)" fill="#d2d2d2"/>
    <path id="Path_36" data-name="Path 36" d="M74.768,57.518q7.394,0,14.789,0c1.8,0,2.479.681,2.481,2.467,0,2.131.008,4.262,0,6.393a2.02,2.02,0,0,1-2.292,2.284q-14.98.013-29.96,0c-1.632,0-2.3-.693-2.313-2.336q-.018-3.292,0-6.583c.012-1.53.691-2.218,2.219-2.222,5.025-.013,10.05,0,15.075-.005M69.7,66.66c6.716,0,13.16-.006,19.6.01.563,0,.7-.223.692-.734-.02-1.81-.044-3.621.01-5.429.023-.779-.188-1.027-1-1.02q-6.382.06-12.764,0a1.728,1.728,0,0,0-1.645.84c-.509.763-1.125,1.454-1.689,2.18-1.023,1.319-2.042,2.641-3.21,4.152m-3.135-7.152c-2.355,0-4.443.009-6.532-.006-.567,0-.584.337-.582.751.006,1.809-.009,3.618.012,5.427,0,.337-.219.867.338.943.468.063,1.019.236,1.412-.268,1.731-2.219,3.466-4.435,5.352-6.847m6.083,0c-1.026,0-1.84.045-2.647-.014a1.481,1.481,0,0,0-1.42.716c-1.158,1.549-2.385,3.047-3.54,4.6-.418.562-1.341,1.105-1.076,1.717.182.421,1.284.058,1.966.146a1.825,1.825,0,0,0,1.9-.917c.735-1.069,1.588-2.058,2.384-3.086.768-.991,1.529-1.987,2.432-3.16" transform="translate(-52.35 -52.399)" fill="#d2d2d2"/>
    <path id="Path_37" data-name="Path 37" d="M57.492,221.71c0-.954-.016-1.908,0-2.862a2.024,2.024,0,0,1,2.112-2.192c1.97-.047,3.944-.051,5.914,0a2.041,2.041,0,0,1,2.108,2.216q.025,2.91,0,5.819a1.971,1.971,0,0,1-2.037,2.161q-3.05.094-6.1,0a1.943,1.943,0,0,1-1.994-2.185c-.018-.986,0-1.972,0-2.957m1.988-.167c0,.994.021,1.819-.008,2.643-.017.5.17.662.662.655,1.585-.023,3.17-.03,4.755,0,.559.012.7-.194.687-.715-.027-1.585-.024-3.17,0-4.755.007-.487-.142-.678-.648-.657-.823.034-1.648-.008-2.472.013-.946.024-2.179-.4-2.762.152-.643.6-.111,1.863-.212,2.661" transform="translate(-52.372 -197.347)" fill="#d2d2d2"/>
    <path id="Path_38" data-name="Path 38" d="M62.547,366.471c1.017,0,2.035-.016,3.052.005a1.916,1.916,0,0,1,1.974,1.9q.063,3.146,0,6.295a1.977,1.977,0,0,1-2.059,1.94q-3,.032-6.009,0a1.953,1.953,0,0,1-2.047-2.03q-.045-3.051,0-6.1a1.877,1.877,0,0,1,2.039-2c1.017-.015,2.035,0,3.052,0m2.972,5.055c0-.761-.029-1.523.009-2.282.03-.584-.106-.855-.774-.834-1.52.048-3.043.036-4.564,0-.576-.012-.781.17-.77.756.031,1.553.026,3.107,0,4.659-.008.52.139.735.695.725,1.584-.029,3.17-.026,4.755,0,.493.007.676-.148.655-.65-.034-.791-.009-1.585-.008-2.377" transform="translate(-52.325 -333.863)" fill="#d2d2d2"/>
    <path id="Path_39" data-name="Path 39" d="M62.455,524.908c-.985,0-1.971.021-2.955-.005a1.862,1.862,0,0,1-2.045-2q-.046-3.05,0-6.1a1.925,1.925,0,0,1,2.045-2.026q3-.037,6.006,0a1.991,1.991,0,0,1,2.074,2.118q.033,2.955,0,5.911a1.957,1.957,0,0,1-2.075,2.1c-1.016.027-2.034.005-3.051.005m3.062-5c0-.825-.017-1.65.007-2.474.013-.444-.135-.616-.595-.611q-2.426.03-4.852,0c-.5-.007-.66.18-.653.667.021,1.554.026,3.108,0,4.662-.01.571.171.789.761.776,1.49-.031,2.983-.052,4.471.008.754.03.927-.258.877-.935-.051-.694-.011-1.395-.012-2.092" transform="translate(-52.322 -468.961)" fill="#d2d2d2"/>
    <path id="Path_40" data-name="Path 40" d="M194.857,221.741c0-.954-.007-1.907,0-2.861a2.02,2.02,0,0,1,2.075-2.221c1.969-.054,3.942-.05,5.912,0a2.084,2.084,0,0,1,2.157,2.27c.008.731.009,1.462,0,2.193a1.019,1.019,0,1,1-2.035.1,12.573,12.573,0,0,1-.027-1.809c.015-.454-.08-.7-.619-.688-1.621.029-3.243.026-4.863,0-.506-.008-.658.174-.651.664.023,1.589.029,3.179,0,4.768-.011.558.2.707.721.692,1.08-.031,2.162,0,3.242-.013.707-.01,1.211.239,1.225,1s-.534,1.032-1.207,1.041c-1.271.018-2.545.043-3.814-.007a2,2,0,0,1-2.111-2.265c-.007-.954,0-1.907,0-2.861" transform="translate(-177.52 -197.349)" fill="#d2d2d2"/>
    <path id="Path_41" data-name="Path 41" d="M194.838,371.565c0-1.049-.017-2.1.006-3.148a1.866,1.866,0,0,1,1.911-1.93c1.335-.026,2.671,0,4.006-.012.679-.007,1.128.263,1.145.972s-.427,1-1.11.989c-1.081-.011-2.163.024-3.243-.012-.57-.019-.786.149-.772.749.036,1.557.03,3.116,0,4.674-.01.532.15.735.7.717,1.016-.034,2.035-.018,3.052-.005.729.009,1.4.2,1.357,1.091-.036.8-.63,1-1.354.983-1.208-.024-2.417.009-3.625-.011a1.976,1.976,0,0,1-2.074-2.1c-.014-.985,0-1.971,0-2.957" transform="translate(-177.499 -333.873)" fill="#d2d2d2"/>
    <path id="Path_42" data-name="Path 42" d="M196.771,519.931a16.731,16.731,0,0,1-.016,2c-.113.931.294,1.138,1.128,1.081.918-.062,1.844-.007,2.766-.015.7-.006,1.225.234,1.227,1s-.542.993-1.232.988c-1.272-.01-2.545.019-3.816-.013a1.882,1.882,0,0,1-2.007-2.038q-.024-3.005,0-6.01a1.957,1.957,0,0,1,2.092-2.08c1.24-.021,2.48,0,3.721-.007.7-.005,1.222.251,1.243,1s-.51,1.05-1.193,1.063c-1.049.02-2.1.031-3.148,0-.56-.018-.811.13-.773.74.047.76.011,1.526.011,2.289" transform="translate(-177.477 -469.038)" fill="#d2d2d2"/>
    <path id="Path_43" data-name="Path 43" d="M337.019,216.788c.952,0,1.9-.023,2.855.005a2.1,2.1,0,0,1,2.241,2.274c.009.6.02,1.206-.007,1.808a.958.958,0,0,1-1.019,1.021c-.6,0-.9-.385-1-.952a2.7,2.7,0,0,1-.017-.285c-.1-1.788-.1-1.788-1.886-1.788-1.174,0-2.348.024-3.521-.01-.544-.016-.741.174-.707.709a9.207,9.207,0,0,1-.022,1.426.908.908,0,0,1-1.019.9.878.878,0,0,1-.927-.892,17.356,17.356,0,0,1,.033-2.564,2.025,2.025,0,0,1,2.14-1.647c.951-.029,1.9-.006,2.855-.006" transform="translate(-302.428 -197.493)" fill="#d2d2d2"/>
    <path id="Path_44" data-name="Path 44" d="M391.681,529.8c-.36.427-.675.857-1.048,1.229a.995.995,0,0,1-1.449-1.357c1.024-1.084,2.072-2.149,3.161-3.166a.984.984,0,0,1,1.451.12q1.454,1.44,2.893,2.9a1.011,1.011,0,1,1-1.4,1.451c-.361-.355-.673-.76-1.13-1.284a10.953,10.953,0,0,0-.144,2.725c-.028.92-.024,1.842,0,2.762.018.725-.317,1.23-1.013,1.236s-1.034-.529-1.035-1.23c0-1.461,0-2.921-.008-4.382a1.164,1.164,0,0,0-.273-1" transform="translate(-354.317 -479.424)" fill="#d2d2d2"/>
    <path id="Path_45" data-name="Path 45" d="M508.619,530.144c0,1.712-.019,3.425.009,5.137.012.711-.233,1.267-.948,1.281-.766.015-1.04-.544-1.026-1.3.03-1.7.009-3.41.009-5.383-.55.533-.915.9-1.3,1.254a.946.946,0,0,1-1.437.047.98.98,0,0,1,.046-1.515c.959-.974,1.922-1.944,2.9-2.9a1.022,1.022,0,0,1,1.593.042q1.423,1.408,2.832,2.83a.979.979,0,0,1,.088,1.51.936.936,0,0,1-1.5-.065,13.261,13.261,0,0,1-.909-1.209l-.362.269" transform="translate(-458.789 -479.573)" fill="#d2d2d2"/>
  </g>
</svg>
